fontCallback.success({"glyphs":{"S":{"x_min":68.0625,"x_max":732.28125,"ha":668,"o":"m 732 947 b 536 973 668 965 602 973 b 191 700 367 973 191 897 b 552 262 191 476 552 443 b 306 75 552 129 419 75 b 88 126 231 75 159 97 l 68 15 b 280 -15 137 -5 208 -15 b 661 288 472 -15 661 65 b 300 725 661 541 300 548 b 509 883 300 841 413 883 b 711 836 579 883 647 865 l 732 947 "},"¦":{"x_min":197.359375,"x_max":289.921875,"ha":358,"o":"m 289 558 l 289 1056 l 197 1056 l 197 558 l 289 558 m 289 -188 l 289 309 l 197 309 l 197 -188 l 289 -188 "},"/":{"x_min":-12,"x_max":580,"ha":411,"o":"m 580 1056 l 483 1056 l -12 -190 l 84 -190 l 580 1056 "},"y":{"x_min":108,"x_max":699,"ha":592,"o":"m 699 661 l 600 661 l 328 131 l 325 131 l 233 661 l 133 661 l 250 0 l 108 -272 l 207 -272 l 699 661 "},"Á":{"x_min":12,"x_max":744,"ha":772,"o":"m 744 0 l 622 958 l 494 958 l 12 0 l 119 0 l 263 294 l 606 294 l 641 0 l 744 0 m 597 384 l 307 384 l 539 861 l 542 861 l 597 384 m 740 1255 l 620 1255 l 526 1073 l 612 1073 l 740 1255 "},"g":{"x_min":49,"x_max":676.46875,"ha":668,"o":"m 676 661 l 579 661 l 560 556 l 558 556 b 400 676 536 626 472 676 b 118 230 197 676 118 397 b 277 0 118 129 157 0 b 472 116 366 0 427 43 l 475 113 b 219 -193 442 -70 436 -193 b 66 -155 166 -193 114 -179 l 49 -250 b 219 -272 107 -262 160 -272 b 549 0 415 -272 514 -194 l 676 661 m 524 420 b 317 79 524 302 462 79 b 224 241 238 79 224 180 b 406 597 224 347 273 597 b 524 420 494 597 524 494 "},"²":{"x_min":132.28125,"x_max":573.28125,"ha":479,"o":"m 573 1022 b 415 1168 573 1119 506 1168 b 222 1016 326 1168 231 1120 l 303 1016 b 408 1106 314 1073 351 1106 b 492 1023 461 1106 492 1077 b 143 620 492 888 245 697 l 132 554 l 490 554 l 501 622 l 241 622 b 305 672 260 637 283 655 b 573 1022 424 763 573 881 "},"ë":{"x_min":122.171875,"x_max":645,"ha":617,"o":"m 629 488 b 428 676 629 606 537 676 b 122 261 207 676 122 451 b 391 -15 122 76 212 -15 b 530 4 436 -15 485 -6 l 545 81 b 440 63 511 70 477 63 b 228 287 292 63 228 138 b 240 390 228 322 233 356 l 616 390 b 629 488 625 422 629 455 m 533 493 b 530 468 533 486 531 475 l 258 468 b 423 597 288 547 337 597 b 533 493 486 597 533 561 m 645 913 l 525 913 l 502 791 l 621 791 l 645 913 m 403 913 l 284 913 l 261 791 l 380 791 l 403 913 "},"Î":{"x_min":125,"x_max":541,"ha":360,"o":"m 411 958 l 307 958 l 125 0 l 228 0 l 411 958 m 541 1073 l 455 1255 l 355 1255 l 201 1073 l 284 1073 l 393 1184 l 458 1073 l 541 1073 "},"e":{"x_min":122.984375,"x_max":630.6875,"ha":617,"o":"m 630 488 b 429 676 630 606 538 676 b 122 261 208 676 122 451 b 392 -15 122 76 212 -15 b 531 4 437 -15 486 -6 l 546 81 b 441 63 512 70 478 63 b 229 287 293 63 229 138 b 241 390 229 322 234 356 l 617 390 b 630 488 626 422 630 455 m 534 493 b 531 468 534 486 532 475 l 259 468 b 423 597 289 547 338 597 b 534 493 487 597 534 561 "},"Ã":{"x_min":12,"x_max":744,"ha":772,"o":"m 744 0 l 622 958 l 494 958 l 12 0 l 119 0 l 263 294 l 606 294 l 641 0 l 744 0 m 597 384 l 307 384 l 539 861 l 542 861 l 597 384 m 669 1219 b 627 1152 665 1195 659 1152 b 482 1226 592 1152 535 1226 b 375 1073 411 1226 389 1129 l 432 1073 b 473 1140 436 1094 445 1140 b 614 1065 498 1140 562 1065 b 726 1219 686 1065 719 1159 l 669 1219 "},"J":{"x_min":1,"x_max":558,"ha":489,"o":"m 558 958 l 454 958 l 325 277 b 134 75 299 155 281 75 b 18 100 92 75 56 83 l 1 2 b 129 -15 43 -8 85 -15 b 391 127 246 -15 344 9 b 424 258 408 170 417 213 l 558 958 "},"»":{"x_min":74,"x_max":505,"ha":489,"o":"m 505 344 l 453 601 l 354 601 l 390 344 l 256 81 l 355 81 l 505 344 m 322 344 l 271 601 l 171 601 l 208 344 l 74 81 l 173 81 l 322 344 "},"©":{"x_min":156.53125,"x_max":796.25,"ha":694,"o":"m 796 647 b 476 973 796 826 651 973 b 156 647 300 973 156 826 b 476 320 156 466 299 320 b 796 647 651 320 796 466 m 748 647 b 476 369 748 495 624 369 b 204 647 328 369 204 495 b 476 925 204 798 328 925 b 748 647 624 925 748 798 m 586 565 b 487 523 555 537 530 523 b 366 652 417 523 366 581 b 491 781 366 723 420 781 b 586 738 530 781 559 762 l 620 784 b 491 838 582 819 544 838 b 306 652 390 838 306 755 b 491 466 306 550 390 466 b 620 520 545 466 582 481 l 586 565 "},"ò":{"x_min":117.53125,"x_max":667.859375,"ha":668,"o":"m 667 437 b 451 676 667 580 598 676 b 117 227 208 676 117 440 b 340 -15 117 81 191 -15 b 667 437 583 -15 667 227 m 561 416 b 351 63 561 280 522 63 b 223 238 253 63 223 154 b 439 597 223 373 271 597 b 561 416 543 597 561 502 m 495 776 l 473 958 l 353 958 l 410 776 l 495 776 "},"^":{"x_min":229,"x_max":689,"ha":797,"o":"m 689 462 l 501 895 l 416 895 l 229 462 l 313 462 l 459 802 l 604 462 l 689 462 "},"«":{"x_min":103,"x_max":539,"ha":489,"o":"m 539 601 l 439 601 l 289 338 l 341 81 l 440 81 l 404 338 l 539 601 m 352 601 l 252 601 l 103 338 l 154 81 l 254 81 l 217 338 l 352 601 "},"D":{"x_min":115.6875,"x_max":819.390625,"ha":797,"o":"m 819 643 b 509 958 819 858 717 958 l 299 958 l 115 0 l 338 0 b 819 643 703 0 819 322 m 705 643 b 356 90 705 415 638 90 l 236 90 l 385 868 l 462 868 b 705 643 620 868 705 818 "},"ÿ":{"x_min":108,"x_max":699,"ha":592,"o":"m 699 661 l 601 661 l 328 131 l 326 131 l 233 661 l 133 661 l 250 0 l 108 -272 l 207 -272 l 699 661 m 634 913 l 514 913 l 491 791 l 610 791 l 634 913 m 392 913 l 272 913 l 250 791 l 369 791 l 392 913 "},"í":{"x_min":116,"x_max":493,"ha":335,"o":"m 339 661 l 242 661 l 116 0 l 212 0 l 339 661 m 493 958 l 373 958 l 279 776 l 364 776 l 493 958 "},"w":{"x_min":183.96875,"x_max":1002,"ha":951,"o":"m 1002 661 l 912 661 l 694 147 l 691 147 l 627 661 l 547 661 l 298 147 l 295 147 l 273 661 l 183 661 l 213 0 l 314 0 l 563 506 l 566 506 l 627 0 l 724 0 l 1002 661 "},"$":{"x_min":114.78125,"x_max":778.765625,"ha":746,"o":"m 778 754 b 571 927 778 870 668 920 l 592 1030 l 526 1030 l 506 927 b 220 645 346 920 220 815 b 413 443 220 518 313 476 l 339 48 b 235 164 275 60 235 96 b 238 188 235 174 237 178 l 117 188 b 114 167 116 181 114 174 b 326 -14 114 34 215 -7 l 305 -131 l 370 -131 l 392 -14 b 703 269 555 -14 703 92 b 490 497 703 411 605 459 l 559 865 b 657 756 618 855 657 819 b 654 727 657 747 656 737 l 776 727 b 778 754 777 734 778 747 m 428 519 b 335 662 370 545 335 597 b 494 865 335 763 393 846 l 428 519 m 584 265 b 404 48 584 153 514 63 l 475 419 b 584 265 536 390 584 337 "},"\\":{"x_min":78,"x_max":493,"ha":411,"o":"m 493 -190 l 174 1056 l 78 1056 l 396 -190 l 493 -190 "},"Ì":{"x_min":125,"x_max":411,"ha":360,"o":"m 411 958 l 307 958 l 125 0 l 228 0 l 411 958 m 398 1073 l 376 1255 l 256 1255 l 313 1073 l 398 1073 "},"µ":{"x_min":56.6875,"x_max":720.90625,"ha":733,"o":"m 720 661 l 624 661 l 565 357 b 354 64 537 211 471 64 b 254 194 282 64 254 118 b 263 279 254 220 258 248 l 335 661 l 239 661 l 56 -297 l 153 -297 b 214 61 168 -167 192 -59 b 337 -15 226 22 275 -15 b 531 115 443 -15 494 39 b 529 83 530 104 529 93 b 631 -10 529 14 571 -10 b 663 -9 643 -10 648 -10 l 678 69 b 620 118 635 69 620 83 b 624 157 620 129 621 141 l 720 661 "},"Ç":{"x_min":151.671875,"x_max":854,"ha":746,"o":"m 854 754 b 596 973 854 903 728 973 b 151 343 270 973 151 625 b 365 -5 151 161 207 28 l 315 -128 b 427 -183 354 -128 427 -120 b 350 -259 427 -223 391 -259 b 278 -226 323 -259 298 -244 l 264 -296 b 346 -315 291 -309 315 -315 b 505 -171 429 -315 505 -262 b 391 -80 505 -96 455 -80 l 418 -13 b 457 -15 430 -15 445 -15 b 685 32 538 -15 610 -1 l 707 140 b 475 75 634 103 558 75 b 266 351 306 75 266 205 b 576 883 266 539 340 883 b 732 744 660 883 732 836 b 727 697 732 729 731 712 l 848 697 b 854 754 849 718 854 733 "},"-":{"x_min":127,"x_max":560,"ha":565,"o":"m 560 393 l 146 393 l 127 295 l 542 295 l 560 393 "},"Q":{"x_min":156.15625,"x_max":853.046875,"ha":849,"o":"m 853 656 b 591 973 853 835 786 973 b 156 310 260 973 156 585 b 433 0 156 117 232 0 l 819 0 l 836 92 l 638 70 l 635 73 b 853 656 799 210 853 447 m 738 647 b 447 90 738 463 685 90 b 270 308 319 90 270 191 b 569 883 270 491 333 883 b 738 647 710 883 738 765 "},"M":{"x_min":114,"x_max":1153,"ha":1106,"o":"m 1153 958 l 989 958 l 566 131 l 563 131 l 453 958 l 296 958 l 114 0 l 217 0 l 376 840 l 379 840 l 489 0 l 594 0 l 1023 840 l 1026 837 l 867 0 l 970 0 l 1153 958 "},"C":{"x_min":152.4375,"x_max":854.78125,"ha":746,"o":"m 854 754 b 597 973 854 902 729 973 b 152 343 270 973 152 625 b 458 -15 152 127 230 -15 b 686 31 539 -15 611 -1 l 707 140 b 476 75 635 102 559 75 b 266 351 307 75 266 205 b 577 883 266 538 341 883 b 733 744 661 883 733 836 b 728 697 733 729 732 712 l 849 697 b 854 754 850 718 854 733 "},"!":{"x_min":172,"x_max":480,"ha":386,"o":"m 480 958 l 365 958 l 244 259 l 335 259 l 480 958 m 334 137 l 199 137 l 172 0 l 306 0 l 334 137 "},"ç":{"x_min":120.890625,"x_max":640.671875,"ha":592,"o":"m 640 509 b 444 676 640 625 548 676 b 120 262 224 676 120 461 b 290 -1 120 118 182 32 l 239 -128 b 352 -183 278 -128 352 -120 b 274 -259 352 -223 312 -259 b 202 -226 247 -259 222 -244 l 188 -296 b 270 -315 216 -309 239 -315 b 429 -171 352 -315 429 -262 b 315 -80 429 -96 379 -80 l 344 -10 b 402 -15 361 -12 382 -15 b 531 3 446 -15 489 -6 l 546 78 b 442 64 512 68 478 64 b 227 290 295 64 227 146 b 433 597 227 415 284 597 b 529 500 492 597 529 559 b 524 459 529 487 526 472 l 636 459 b 640 509 639 475 640 491 "},"È":{"x_min":116,"x_max":754,"ha":643,"o":"m 754 958 l 299 958 l 116 0 l 583 0 l 598 90 l 237 90 l 306 455 l 641 455 l 657 545 l 324 545 l 385 868 l 736 868 l 754 958 m 585 1073 l 563 1255 l 443 1255 l 500 1073 l 585 1073 "},"{":{"x_min":83.59375,"x_max":545.015625,"ha":399,"o":"m 195 436 b 357 633 280 455 332 509 b 433 947 378 745 377 872 b 534 1000 456 977 491 995 l 545 1063 b 353 1000 453 1061 392 1043 b 248 613 274 913 283 763 b 95 463 218 490 163 469 l 83 412 b 182 305 144 406 182 386 b 127 -27 182 200 127 72 b 304 -194 127 -137 200 -187 l 319 -134 b 231 -20 261 -129 231 -84 b 282 290 231 69 282 193 b 195 436 282 376 249 416 "},"X":{"x_min":-4,"x_max":860,"ha":721,"o":"m 860 958 l 741 958 l 462 598 l 323 958 l 215 958 l 393 502 l -4 0 l 115 0 l 431 406 l 591 0 l 700 0 l 500 502 l 860 958 "},"ô":{"x_min":116.78125,"x_max":666.0625,"ha":668,"o":"m 666 437 b 449 676 666 580 596 676 b 116 227 207 676 116 440 b 339 -15 116 81 190 -15 b 666 437 581 -15 666 227 m 560 416 b 350 63 560 280 520 63 b 222 238 252 63 222 154 b 437 597 222 373 270 597 b 560 416 542 597 560 502 m 630 776 l 545 958 l 444 958 l 291 776 l 373 776 l 482 887 l 547 776 l 630 776 "},"¼":{"x_min":201,"x_max":1088,"ha":1132,"o":"m 856 880 l 779 880 l 328 0 l 405 0 l 856 880 m 418 895 l 349 895 l 215 818 l 201 736 l 328 813 l 228 281 l 301 281 l 418 895 m 1088 234 l 984 234 l 1056 602 l 976 602 l 667 230 l 656 166 l 898 166 l 867 0 l 942 0 l 973 166 l 1077 166 l 1088 234 m 912 234 l 745 234 l 966 513 l 912 234 "},"#":{"x_min":132,"x_max":814,"ha":797,"o":"m 814 580 l 677 580 l 812 880 l 726 880 l 592 580 l 476 580 l 611 880 l 525 880 l 390 580 l 259 580 l 227 505 l 356 505 l 298 372 l 167 372 l 134 297 l 264 297 l 132 0 l 217 0 l 349 297 l 465 297 l 333 0 l 419 0 l 551 297 l 688 297 l 721 372 l 585 372 l 643 505 l 781 505 l 814 580 m 558 505 l 499 372 l 383 372 l 442 505 l 558 505 "},"Ê":{"x_min":116,"x_max":754,"ha":643,"o":"m 754 958 l 299 958 l 116 0 l 582 0 l 598 90 l 237 90 l 306 455 l 641 455 l 657 545 l 324 545 l 386 868 l 736 868 l 754 958 m 702 1073 l 615 1255 l 514 1255 l 362 1073 l 444 1073 l 552 1184 l 617 1073 l 702 1073 "},")":{"x_min":-6.8125,"x_max":405.609375,"ha":386,"o":"m 405 758 b 232 1034 405 888 366 998 l 220 973 b 300 790 288 936 300 859 b 130 -47 300 627 197 88 b 4 -165 106 -94 59 -154 l -6 -226 b 212 -87 80 -222 167 -162 b 405 758 306 76 405 559 "},"Å":{"x_min":12,"x_max":744,"ha":772,"o":"m 744 0 l 622 958 l 495 958 l 12 0 l 119 0 l 263 294 l 606 294 l 641 0 l 744 0 m 597 384 l 307 384 l 539 861 l 542 861 l 597 384 m 689 1170 b 573 1288 689 1234 637 1288 b 458 1170 511 1288 458 1233 b 573 1051 458 1105 508 1051 b 689 1170 639 1051 689 1105 m 632 1170 b 573 1109 632 1137 606 1109 b 515 1170 541 1109 515 1137 b 573 1230 515 1202 541 1230 b 632 1170 605 1230 632 1202 "},"ø":{"x_min":79.171875,"x_max":702.5625,"ha":668,"o":"m 702 698 l 659 728 l 588 634 b 450 676 548 666 499 676 b 115 227 208 676 115 440 b 160 66 115 172 124 111 l 79 -41 l 122 -72 l 197 27 b 340 -15 237 -3 290 -15 b 667 437 582 -15 667 227 b 623 594 667 492 656 549 l 702 698 m 231 161 b 222 238 224 184 222 212 b 438 596 222 373 269 596 b 528 555 475 596 506 587 l 231 161 m 561 416 b 351 64 561 280 521 64 b 257 107 313 64 280 77 l 552 499 b 561 416 559 472 561 444 "},"â":{"x_min":114.0625,"x_max":674.5625,"ha":668,"o":"m 674 661 l 577 661 l 560 558 l 557 558 b 399 676 531 629 474 676 b 114 213 192 676 114 380 b 288 -15 114 97 157 -15 b 470 109 383 -15 429 30 l 473 106 l 452 0 l 549 0 l 674 661 m 523 420 b 322 63 523 305 467 63 b 220 227 232 63 220 155 b 405 597 220 334 267 597 b 523 420 495 597 523 495 m 631 776 l 545 958 l 444 958 l 291 776 l 373 776 l 482 887 l 548 776 l 631 776 "},"}":{"x_min":1.984375,"x_max":463.40625,"ha":399,"o":"m 351 433 b 189 236 266 413 214 359 b 113 -77 168 123 169 -2 b 12 -130 90 -108 55 -126 l 1 -194 b 193 -130 93 -191 154 -173 b 298 255 272 -44 263 105 b 451 405 328 379 383 400 l 463 456 b 364 563 402 462 364 483 b 419 897 364 669 419 797 b 242 1063 419 1006 346 1056 l 227 1004 b 315 890 285 998 315 954 b 264 579 315 800 264 676 b 351 433 264 493 297 452 "},"Ä":{"x_min":12,"x_max":769,"ha":772,"o":"m 744 0 l 623 958 l 495 958 l 12 0 l 119 0 l 263 294 l 606 294 l 642 0 l 744 0 m 597 384 l 307 384 l 540 861 l 542 861 l 597 384 m 769 1211 l 649 1211 l 626 1088 l 745 1088 l 769 1211 m 527 1211 l 408 1211 l 385 1088 l 504 1088 l 527 1211 "},"¸":{"x_min":96.6875,"x_max":337.609375,"ha":403,"o":"m 337 -171 b 223 -80 337 -96 287 -80 l 265 22 l 208 22 l 147 -128 b 260 -183 186 -128 260 -120 b 182 -259 260 -223 223 -259 b 110 -226 155 -259 130 -244 l 96 -296 b 178 -315 123 -309 147 -315 b 337 -171 261 -315 337 -262 "},"a":{"x_min":114.328125,"x_max":675.109375,"ha":668,"o":"m 675 661 l 578 661 l 560 558 l 558 558 b 400 676 532 629 475 676 b 114 213 193 676 114 380 b 288 -15 114 97 157 -15 b 470 109 383 -15 430 30 l 473 106 l 453 0 l 549 0 l 675 661 m 524 420 b 322 63 524 305 468 63 b 220 227 232 63 220 155 b 405 597 220 334 268 597 b 524 420 495 597 524 495 "},"=":{"x_min":144.28125,"x_max":773.109375,"ha":797,"o":"m 773 397 l 773 481 l 144 481 l 144 397 l 773 397 m 773 194 l 773 279 l 144 279 l 144 194 l 773 194 "},"N":{"x_min":116,"x_max":926,"ha":875,"o":"m 926 958 l 822 958 l 664 133 l 661 133 l 431 958 l 299 958 l 116 0 l 219 0 l 371 806 l 374 806 l 610 0 l 742 0 l 926 958 "},"ú":{"x_min":134.359375,"x_max":694.078125,"ha":694,"o":"m 694 661 l 597 661 l 552 436 b 312 76 526 322 459 76 b 237 154 267 76 237 108 b 248 266 237 191 241 229 l 324 661 l 228 661 l 146 234 b 134 133 139 201 134 166 b 265 -15 134 54 182 -15 b 491 134 380 -15 429 45 l 493 131 l 467 0 l 564 0 l 694 661 m 641 958 l 521 958 l 427 776 l 512 776 l 641 958 "},"2":{"x_min":74.53125,"x_max":711.53125,"ha":694,"o":"m 711 684 b 485 895 711 825 616 895 b 206 681 356 895 221 826 l 319 681 b 476 813 335 765 390 813 b 604 687 556 813 604 769 b 92 90 604 486 240 204 l 74 0 l 591 0 l 608 90 l 221 90 b 711 684 387 236 711 436 "},"ü":{"x_min":134.3125,"x_max":693.890625,"ha":694,"o":"m 693 661 l 597 661 l 552 436 b 312 76 526 322 459 76 b 237 154 267 76 237 108 b 248 266 237 191 241 229 l 324 661 l 228 661 l 146 234 b 134 133 139 201 134 166 b 264 -15 134 54 181 -15 b 491 134 380 -15 429 45 l 493 131 l 467 0 l 564 0 l 693 661 m 683 913 l 563 913 l 540 791 l 659 791 l 683 913 m 441 913 l 322 913 l 299 791 l 418 791 l 441 913 "},"¯":{"x_min":158,"x_max":517,"ha":403,"o":"m 517 859 l 172 859 l 158 776 l 500 776 l 517 859 "},"Z":{"x_min":33,"x_max":784,"ha":668,"o":"m 784 958 l 238 958 l 220 868 l 647 868 l 49 90 l 33 0 l 620 0 l 638 90 l 169 90 l 767 868 l 784 958 "},"u":{"x_min":134.75,"x_max":694.171875,"ha":694,"o":"m 694 661 l 597 661 l 552 436 b 313 76 526 322 460 76 b 238 154 268 76 238 108 b 249 266 238 191 242 229 l 325 661 l 228 661 l 147 234 b 134 133 140 201 134 166 b 265 -15 134 54 182 -15 b 491 134 381 -15 430 45 l 494 131 l 468 0 l 564 0 l 694 661 "},"Ó":{"x_min":147.96875,"x_max":844.3125,"ha":824,"o":"m 844 656 b 583 973 844 834 780 973 b 147 311 252 973 147 586 b 416 -15 147 122 207 -15 b 844 656 743 -15 844 388 m 729 647 b 425 75 729 461 665 75 b 262 308 297 75 262 201 b 561 883 262 491 324 883 b 729 647 702 883 729 763 m 739 1255 l 619 1255 l 525 1073 l 611 1073 l 739 1255 "},"k":{"x_min":108,"x_max":669,"ha":592,"o":"m 669 661 l 551 661 l 279 381 l 276 384 l 387 958 l 290 958 l 108 0 l 204 0 l 270 351 l 272 351 l 456 0 l 568 0 l 376 363 l 669 661 "},"Ù":{"x_min":154.75,"x_max":882.03125,"ha":824,"o":"m 882 958 l 778 958 l 660 345 b 426 75 631 200 602 75 b 259 219 338 75 259 119 b 274 336 259 258 267 297 l 392 958 l 289 958 l 171 337 b 154 204 164 294 154 248 b 421 -15 154 48 285 -15 b 763 345 674 -15 719 126 l 882 958 m 652 1073 l 630 1255 l 510 1255 l 567 1073 l 652 1073 "},"€":{"x_min":77.15625,"x_max":833.96875,"ha":746,"o":"m 833 726 b 613 925 833 843 742 925 b 237 561 432 925 307 804 l 235 554 l 145 554 l 123 490 l 221 490 l 210 431 l 210 425 l 98 425 l 77 362 l 203 362 l 202 354 b 201 300 201 330 201 316 b 459 -13 201 87 284 -13 b 661 29 535 -13 599 0 l 684 131 b 478 70 602 88 542 70 b 301 313 358 70 301 148 b 303 362 301 331 301 345 l 554 362 l 578 425 l 309 425 b 319 483 314 447 316 459 l 322 490 l 601 490 l 623 554 l 337 554 l 338 561 b 591 840 375 743 480 840 b 726 719 673 840 726 790 b 719 663 726 706 725 687 l 825 663 b 833 726 831 691 833 712 "},"¢":{"x_min":119.75,"x_max":639.6875,"ha":617,"o":"m 639 509 b 473 676 639 613 567 665 l 494 783 l 434 783 l 413 676 b 119 233 195 654 119 427 b 284 -1 119 115 170 30 l 259 -131 l 319 -131 l 342 -12 b 401 -15 363 -13 381 -15 b 537 6 449 -15 492 -5 l 549 69 b 440 48 513 56 479 48 b 356 58 413 48 383 51 l 462 616 b 528 500 517 601 528 550 b 524 459 528 487 525 472 l 635 459 b 639 509 636 476 639 493 m 300 84 b 224 261 242 122 224 193 b 402 616 224 379 270 583 l 300 84 "},"ß":{"x_min":108.890625,"x_max":735,"ha":721,"o":"m 735 776 b 515 973 735 909 639 973 b 236 676 319 973 269 845 l 108 0 l 205 0 l 333 676 b 503 894 351 780 375 894 b 628 768 578 894 628 844 b 438 554 628 644 566 554 l 424 480 b 594 318 533 480 594 434 b 386 63 594 184 530 63 b 294 81 355 63 322 70 l 279 0 b 383 -15 313 -6 347 -15 b 700 333 594 -15 700 130 b 555 520 700 433 649 498 l 555 523 b 735 776 671 545 735 663 "},"é":{"x_min":122.609375,"x_max":630.953125,"ha":617,"o":"m 630 488 b 428 676 630 606 538 676 b 122 261 208 676 122 451 b 392 -15 122 76 212 -15 b 531 4 437 -15 486 -6 l 546 81 b 441 63 512 70 478 63 b 228 287 292 63 228 138 b 241 390 228 322 234 356 l 617 390 b 630 488 626 422 630 455 m 534 493 b 531 468 534 486 532 475 l 258 468 b 423 597 288 547 337 597 b 534 493 487 597 534 561 m 617 958 l 497 958 l 403 776 l 488 776 l 617 958 "},"s":{"x_min":53.078125,"x_max":551.25,"ha":514,"o":"m 551 645 b 383 676 496 666 442 676 b 145 480 264 676 145 619 b 406 181 145 305 406 298 b 234 63 406 88 306 63 b 70 101 181 63 118 79 l 53 9 b 230 -15 111 -5 168 -15 b 506 208 367 -15 506 45 b 245 501 506 384 245 391 b 379 597 245 573 321 597 b 533 561 432 597 485 581 l 551 645 "},"B":{"x_min":115.6875,"x_max":762.21875,"ha":746,"o":"m 762 755 b 506 958 762 922 646 958 l 299 958 l 115 0 l 360 0 b 721 319 571 0 721 87 b 579 505 721 420 673 481 l 579 508 b 646 533 602 509 626 518 b 762 755 722 577 762 669 m 653 755 b 447 545 653 623 575 545 l 323 545 l 386 868 l 479 868 b 653 755 563 868 653 865 m 612 305 b 368 90 612 147 510 90 l 236 90 l 307 455 l 443 455 b 612 305 534 455 612 408 "},"?":{"x_min":161.96875,"x_max":683.28125,"ha":565,"o":"m 683 793 b 450 973 683 922 558 973 b 270 943 386 973 330 959 l 250 838 b 430 883 304 865 368 883 b 573 773 496 883 573 851 b 458 606 573 705 503 648 l 363 518 b 243 322 289 445 265 427 l 231 259 l 328 259 b 442 470 349 376 355 387 l 526 548 b 683 793 597 612 683 686 m 322 137 l 187 137 l 161 0 l 296 0 l 322 137 "},"H":{"x_min":118,"x_max":897,"ha":849,"o":"m 897 958 l 793 958 l 714 541 l 325 541 l 404 958 l 300 958 l 118 0 l 221 0 l 307 451 l 696 451 l 611 0 l 714 0 l 897 958 "},"î":{"x_min":116,"x_max":482,"ha":335,"o":"m 339 661 l 242 661 l 116 0 l 212 0 l 339 661 m 482 776 l 396 958 l 295 958 l 142 776 l 224 776 l 333 887 l 398 776 l 482 776 "},"c":{"x_min":120.71875,"x_max":640.671875,"ha":592,"o":"m 640 509 b 444 676 640 625 548 676 b 120 262 224 676 120 461 b 402 -15 120 75 222 -15 b 531 2 446 -15 489 -6 l 546 77 b 441 63 512 68 478 63 b 226 290 294 63 226 145 b 433 597 226 415 284 597 b 529 500 492 597 529 559 b 524 459 529 487 526 472 l 636 459 b 640 509 639 475 640 491 "},"¶":{"x_min":164.6875,"x_max":730.921875,"ha":694,"o":"m 730 904 l 730 958 l 637 958 b 164 622 417 958 164 898 b 466 308 164 432 299 341 l 466 -298 l 517 -298 l 517 896 l 585 903 l 585 -298 l 635 -298 l 635 904 l 730 904 "},"¥":{"x_min":176,"x_max":872,"ha":694,"o":"m 872 958 l 750 958 l 440 551 l 289 958 l 176 958 l 372 440 l 218 440 l 205 376 l 359 376 l 344 302 l 192 302 l 180 238 l 332 238 l 287 0 l 391 0 l 436 238 l 591 238 l 603 302 l 448 302 l 463 376 l 617 376 l 629 440 l 475 440 l 872 958 "},"(":{"x_min":126.578125,"x_max":539,"ha":386,"o":"m 539 1035 b 318 894 450 1030 362 972 b 126 50 223 730 126 246 b 299 -226 126 -81 166 -188 l 310 -164 b 231 18 243 -132 231 -48 b 400 854 231 180 333 719 b 526 974 426 903 470 962 l 539 1035 "},"U":{"x_min":155.171875,"x_max":882,"ha":824,"o":"m 882 958 l 778 958 l 660 345 b 427 75 631 200 602 75 b 259 219 338 75 259 119 b 274 336 259 258 268 297 l 393 958 l 289 958 l 171 337 b 155 204 164 294 155 248 b 421 -15 155 48 285 -15 b 763 345 675 -15 720 126 l 882 958 "},"◊":{"x_min":63,"x_max":619.953125,"ha":717,"o":"m 368 972 l 312 972 l 63 484 l 312 0 l 368 0 l 619 486 l 368 972 m 530 486 l 339 115 l 150 486 l 340 856 l 530 486 "},"Ñ":{"x_min":116,"x_max":926,"ha":875,"o":"m 926 958 l 822 958 l 665 133 l 662 133 l 432 958 l 300 958 l 116 0 l 219 0 l 372 806 l 375 806 l 610 0 l 742 0 l 926 958 m 727 1219 b 685 1152 723 1195 718 1152 b 541 1226 651 1152 594 1226 b 434 1073 470 1226 448 1129 l 491 1073 b 531 1140 495 1094 504 1140 b 673 1065 557 1140 621 1065 b 784 1219 745 1065 777 1159 l 727 1219 "},"F":{"x_min":116,"x_max":753,"ha":592,"o":"m 753 958 l 299 958 l 116 0 l 219 0 l 306 455 l 641 455 l 657 545 l 322 545 l 385 868 l 736 868 l 753 958 "},"­":{"x_min":127,"x_max":560,"ha":565,"o":"m 560 393 l 146 393 l 127 295 l 542 295 l 560 393 "},":":{"x_min":98,"x_max":359,"ha":283,"o":"m 359 661 l 224 661 l 198 523 l 333 523 l 359 661 m 259 137 l 125 137 l 98 0 l 232 0 l 259 137 "},"Û":{"x_min":155.140625,"x_max":881.6875,"ha":824,"o":"m 881 958 l 778 958 l 659 345 b 427 75 631 200 602 75 b 259 219 338 75 259 119 b 274 336 259 258 268 297 l 393 958 l 289 958 l 171 337 b 155 204 164 294 155 248 b 421 -15 155 48 285 -15 b 763 345 674 -15 719 126 l 881 958 m 766 1073 l 680 1255 l 579 1255 l 426 1073 l 508 1073 l 617 1184 l 683 1073 l 766 1073 "},"*":{"x_min":158,"x_max":565,"ha":438,"o":"m 565 761 b 422 786 517 772 469 785 b 521 899 458 819 490 860 l 468 946 b 374 828 435 908 400 871 b 329 974 363 878 347 925 l 264 950 b 314 808 279 901 294 853 b 171 840 266 821 219 833 l 158 772 b 303 747 207 761 254 753 b 204 636 266 714 235 675 l 257 589 b 351 703 290 626 322 664 b 394 561 360 654 378 607 l 462 586 b 409 726 446 635 430 680 b 551 694 457 714 502 701 l 565 761 "},"°":{"x_min":217.78125,"x_max":518.578125,"ha":556,"o":"m 518 743 b 368 895 518 827 449 895 b 217 743 287 895 217 827 b 368 588 217 658 287 588 b 518 743 451 588 518 659 m 454 743 b 368 654 454 694 416 654 b 281 743 321 654 281 694 b 368 830 281 791 321 830 b 454 743 416 830 454 791 "},"V":{"x_min":159,"x_max":912,"ha":721,"o":"m 912 958 l 796 958 l 370 111 l 367 111 l 261 958 l 159 958 l 289 0 l 416 0 l 912 958 "},"å":{"x_min":114.328125,"x_max":675.109375,"ha":668,"o":"m 675 661 l 578 661 l 560 558 l 558 558 b 400 676 532 629 475 676 b 114 213 193 676 114 380 b 288 -15 114 97 157 -15 b 470 109 383 -15 430 30 l 473 106 l 453 0 l 549 0 l 675 661 m 524 420 b 322 63 524 305 468 63 b 220 227 232 63 220 155 b 405 597 220 334 268 597 b 524 420 495 597 524 495 m 598 873 b 483 991 598 937 547 991 b 367 873 420 991 367 936 b 483 754 367 808 417 754 b 598 873 548 754 598 808 m 541 873 b 483 812 541 840 515 812 b 424 873 450 812 424 840 b 483 933 424 905 450 933 b 541 873 514 933 541 905 "}," ":{"x_min":0,"x_max":0,"ha":283},"0":{"x_min":114.328125,"x_max":735,"ha":694,"o":"m 735 606 b 496 895 735 769 675 895 b 114 273 201 895 114 512 b 347 -15 114 112 171 -15 b 735 606 646 -15 735 363 m 627 605 b 366 66 627 450 573 66 b 221 276 246 66 221 176 b 488 813 221 434 277 813 b 627 605 612 813 627 705 "},"¾":{"x_min":60.640625,"x_max":1088.640625,"ha":1132,"o":"m 892 880 l 815 880 l 364 0 l 442 0 l 892 880 m 1088 234 l 985 234 l 1057 602 l 977 602 l 668 230 l 657 166 l 899 166 l 868 0 l 943 0 l 974 166 l 1077 166 l 1088 234 m 913 234 l 745 234 l 967 513 l 913 234 m 480 762 b 320 895 480 858 405 895 b 138 756 240 895 146 850 l 220 756 b 316 834 232 808 266 834 b 401 754 368 834 401 809 b 255 627 401 662 342 627 l 245 565 b 354 472 315 562 354 550 b 232 333 354 388 319 333 b 149 376 200 333 161 344 b 143 393 146 380 143 388 b 145 401 143 395 145 398 l 145 411 l 62 411 b 60 398 62 406 60 401 l 60 390 b 225 270 60 300 153 270 b 433 477 356 270 433 348 b 364 595 433 536 417 575 b 401 612 378 600 389 605 b 480 762 454 644 480 700 "},"@":{"x_min":144.28125,"x_max":1102.5,"ha":1125,"o":"m 834 38 b 1102 409 940 38 1102 161 b 650 836 1102 658 907 836 b 144 315 393 836 144 630 b 616 -173 144 0 352 -173 b 988 -63 877 -173 988 -63 l 952 1 b 623 -91 952 1 852 -91 b 231 312 397 -91 231 54 b 650 754 231 570 424 754 b 1022 409 876 754 1022 598 b 841 120 1022 220 905 120 b 781 180 798 120 781 143 b 789 233 781 194 784 212 l 864 622 l 784 622 l 771 556 l 771 552 b 635 634 744 606 706 634 b 379 250 449 634 379 404 b 545 34 379 144 423 34 b 700 122 607 34 660 69 b 834 38 710 81 745 38 m 559 111 b 465 248 488 111 465 187 b 637 558 465 345 511 558 b 735 394 715 558 735 461 b 559 111 735 288 684 111 "},"ö":{"x_min":116.859375,"x_max":671,"ha":668,"o":"m 666 437 b 450 676 666 580 597 676 b 116 227 208 676 116 440 b 340 -15 116 81 190 -15 b 666 437 582 -15 666 227 m 560 416 b 351 63 560 280 521 63 b 223 238 252 63 223 154 b 438 597 223 373 270 597 b 560 416 543 597 560 502 m 671 913 l 551 913 l 528 791 l 647 791 l 671 913 m 429 913 l 310 913 l 287 791 l 406 791 l 429 913 "},"i":{"x_min":116,"x_max":407,"ha":335,"o":"m 407 958 l 284 958 l 261 833 l 383 833 l 407 958 m 339 661 l 242 661 l 116 0 l 212 0 l 339 661 "},"Õ":{"x_min":148.640625,"x_max":844.171875,"ha":824,"o":"m 844 656 b 584 973 844 834 780 973 b 148 311 253 973 148 586 b 416 -15 148 122 208 -15 b 844 656 743 -15 844 388 m 729 647 b 426 75 729 461 665 75 b 262 308 298 75 262 201 b 562 883 262 491 325 883 b 729 647 702 883 729 763 m 689 1219 b 646 1152 684 1195 679 1152 b 502 1226 612 1152 555 1226 b 395 1073 431 1226 409 1129 l 452 1073 b 493 1140 456 1094 465 1140 b 634 1065 518 1140 582 1065 b 746 1219 706 1065 739 1159 l 689 1219 "},"þ":{"x_min":57.171875,"x_max":675.109375,"ha":668,"o":"m 675 447 b 500 676 675 561 631 676 b 317 551 405 676 359 631 l 314 554 l 393 958 l 296 958 l 57 -297 l 153 -297 l 228 102 l 231 102 b 389 -15 257 31 313 -15 b 675 447 597 -15 675 277 m 567 433 b 381 63 567 325 519 63 b 264 240 289 63 264 166 b 465 597 264 355 318 597 b 567 433 555 597 567 505 "},"]":{"x_min":-12,"x_max":473,"ha":411,"o":"m 473 1055 l 226 1055 l 210 973 l 355 973 l 150 -106 l 4 -106 l -12 -188 l 235 -188 l 473 1055 "},"m":{"x_min":108.890625,"x_max":997.703125,"ha":1029,"o":"m 997 534 b 872 676 997 608 952 676 b 649 527 760 676 706 615 l 646 527 b 522 676 646 608 607 676 b 307 526 412 676 362 612 l 304 529 l 330 661 l 234 661 l 108 0 l 205 0 l 247 225 b 476 584 269 334 337 584 b 547 502 522 584 547 548 b 532 394 547 465 539 429 l 457 0 l 553 0 l 596 225 b 824 584 617 334 686 584 b 894 502 872 584 894 545 b 880 394 894 465 887 431 l 805 0 l 902 0 l 982 426 b 997 534 989 461 997 497 "},"8":{"x_min":118.421875,"x_max":724.109375,"ha":694,"o":"m 724 698 b 500 895 724 834 622 895 b 210 620 336 895 210 795 b 322 456 210 538 242 479 l 322 454 b 118 194 186 431 118 330 b 355 -15 118 44 217 -15 b 657 275 530 -15 657 91 b 536 452 657 362 619 426 l 536 455 b 724 698 657 477 724 577 m 616 684 b 445 497 616 575 558 497 b 318 622 367 497 318 540 b 487 813 318 725 378 813 b 616 684 568 813 616 769 m 549 275 b 368 66 549 155 494 66 b 225 206 277 66 225 113 b 409 415 225 319 292 415 b 549 275 500 415 549 368 "},"R":{"x_min":115.6875,"x_max":788.078125,"ha":746,"o":"m 788 750 b 488 958 788 937 638 958 l 298 958 l 115 0 l 219 0 l 300 423 l 370 423 b 571 220 533 423 567 387 l 577 0 l 680 0 b 673 258 679 87 677 170 b 553 469 669 362 662 436 l 553 472 b 788 750 707 493 788 593 m 679 736 b 394 513 679 552 545 513 l 317 513 l 385 868 l 475 868 b 679 736 568 868 679 858 "},"á":{"x_min":114.578125,"x_max":675.671875,"ha":668,"o":"m 675 661 l 578 661 l 561 558 l 558 558 b 400 676 532 629 475 676 b 114 213 193 676 114 380 b 288 -15 114 97 158 -15 b 471 109 384 -15 430 30 l 473 106 l 453 0 l 550 0 l 675 661 m 524 420 b 322 63 524 305 468 63 b 220 227 233 63 220 155 b 405 597 220 334 268 597 b 524 420 495 597 524 495 m 643 958 l 523 958 l 429 776 l 514 776 l 643 958 "},"×":{"x_min":142,"x_max":775,"ha":797,"o":"m 775 72 l 525 335 l 770 598 l 706 661 l 461 403 l 218 661 l 146 587 l 392 325 l 142 64 l 205 0 l 451 263 l 700 0 l 775 72 "},"o":{"x_min":117.0625,"x_max":666.953125,"ha":668,"o":"m 666 437 b 450 676 666 580 597 676 b 117 227 208 676 117 440 b 340 -15 117 81 190 -15 b 666 437 582 -15 666 227 m 560 416 b 351 63 560 280 521 63 b 223 238 253 63 223 154 b 438 597 223 373 270 597 b 560 416 543 597 560 502 "},"5":{"x_min":121.015625,"x_max":744.40625,"ha":694,"o":"m 744 880 l 312 880 l 194 384 l 297 384 b 436 451 337 424 375 451 b 572 310 523 451 572 399 b 370 66 572 177 514 66 b 233 162 315 66 233 94 b 235 182 233 169 235 176 l 123 182 b 121 159 123 173 121 169 b 355 -15 121 27 244 -15 b 680 321 559 -15 680 114 b 476 532 680 452 602 532 b 318 488 416 532 368 520 l 390 789 l 722 789 l 744 880 "},"õ":{"x_min":116.578125,"x_max":666.46875,"ha":668,"o":"m 666 437 b 450 676 666 580 597 676 b 116 227 207 676 116 440 b 339 -15 116 81 190 -15 b 666 437 582 -15 666 227 m 560 416 b 350 63 560 280 520 63 b 222 238 252 63 222 154 b 437 597 222 373 270 597 b 560 416 542 597 560 502 m 578 922 b 535 855 573 898 568 855 b 391 929 501 855 444 929 b 284 776 320 929 298 831 l 341 776 b 382 843 345 797 354 843 b 523 768 407 843 471 768 b 635 922 595 768 628 862 l 578 922 "},"7":{"x_min":155,"x_max":765,"ha":694,"o":"m 765 880 l 257 880 l 239 790 l 634 790 l 155 0 l 268 0 l 747 790 l 765 880 "},"K":{"x_min":116,"x_max":861,"ha":721,"o":"m 861 958 l 732 958 l 321 523 l 318 526 l 403 958 l 299 958 l 116 0 l 219 0 l 309 469 l 585 0 l 707 0 l 417 494 l 861 958 "},",":{"x_min":42,"x_max":239,"ha":283,"o":"m 239 137 l 119 137 l 42 -170 l 131 -170 l 239 137 "},"d":{"x_min":114.328125,"x_max":732.28125,"ha":668,"o":"m 732 958 l 635 958 l 560 558 l 558 558 b 400 676 532 629 475 676 b 114 213 193 676 114 380 b 288 -15 114 97 157 -15 b 470 109 383 -15 430 30 l 473 106 l 453 0 l 549 0 l 732 958 m 524 420 b 322 63 524 305 468 63 b 220 227 232 63 220 155 b 405 597 220 334 268 597 b 524 420 495 597 524 495 "},"¨":{"x_min":157,"x_max":541,"ha":403,"o":"m 541 913 l 421 913 l 398 791 l 517 791 l 541 913 m 299 913 l 180 913 l 157 791 l 276 791 l 299 913 "},"Ô":{"x_min":148.03125,"x_max":843.28125,"ha":824,"o":"m 843 656 b 583 973 843 834 779 973 b 148 311 252 973 148 586 b 416 -15 148 122 207 -15 b 843 656 742 -15 843 388 m 728 647 b 425 75 728 461 665 75 b 262 308 297 75 262 201 b 561 883 262 491 324 883 b 728 647 701 883 728 763 m 748 1073 l 662 1255 l 561 1255 l 408 1073 l 490 1073 l 599 1184 l 665 1073 l 748 1073 "},"E":{"x_min":116,"x_max":754,"ha":643,"o":"m 754 958 l 299 958 l 116 0 l 582 0 l 598 90 l 237 90 l 306 455 l 641 455 l 657 545 l 324 545 l 385 868 l 736 868 l 754 958 "},"Y":{"x_min":176,"x_max":872,"ha":694,"o":"m 872 958 l 750 958 l 440 551 l 289 958 l 176 958 l 372 441 l 287 0 l 391 0 l 475 441 l 872 958 "},"\"":{"x_min":226,"x_max":584,"ha":489,"o":"m 584 958 l 460 958 l 426 661 l 503 661 l 584 958 m 385 958 l 261 958 l 226 661 l 303 661 l 385 958 "},"ê":{"x_min":122.078125,"x_max":628.90625,"ha":617,"o":"m 628 488 b 427 676 628 606 536 676 b 122 261 207 676 122 451 b 391 -15 122 76 211 -15 b 529 4 435 -15 484 -6 l 544 81 b 439 63 510 70 476 63 b 228 287 292 63 228 138 b 240 390 228 322 233 356 l 615 390 b 628 488 624 422 628 455 m 532 493 b 529 468 532 486 530 475 l 258 468 b 422 597 288 547 336 597 b 532 493 486 597 532 561 m 604 776 l 518 958 l 418 958 l 265 776 l 347 776 l 456 887 l 521 776 l 604 776 "},"Ï":{"x_min":125,"x_max":568,"ha":360,"o":"m 411 958 l 307 958 l 125 0 l 228 0 l 411 958 m 568 1211 l 448 1211 l 425 1088 l 544 1088 l 568 1211 m 326 1211 l 207 1211 l 184 1088 l 303 1088 l 326 1211 "},"Â":{"x_min":12,"x_max":744,"ha":772,"o":"m 744 0 l 622 958 l 495 958 l 12 0 l 119 0 l 263 294 l 606 294 l 642 0 l 744 0 m 597 384 l 307 384 l 540 861 l 542 861 l 597 384 m 736 1073 l 650 1255 l 549 1255 l 396 1073 l 478 1073 l 587 1184 l 652 1073 l 736 1073 "},"Í":{"x_min":125,"x_max":538,"ha":360,"o":"m 411 958 l 306 958 l 125 0 l 227 0 l 411 958 m 538 1255 l 419 1255 l 324 1073 l 411 1073 l 538 1255 "},"´":{"x_min":298,"x_max":512,"ha":403,"o":"m 512 958 l 392 958 l 298 776 l 383 776 l 512 958 "},"ì":{"x_min":116,"x_max":339,"ha":335,"o":"m 339 661 l 242 661 l 116 0 l 212 0 l 339 661 m 331 776 l 309 958 l 189 958 l 246 776 l 331 776 "},"±":{"x_min":142.921875,"x_max":773.109375,"ha":797,"o":"m 504 144 l 504 440 l 773 440 l 773 525 l 504 525 l 504 797 l 412 797 l 412 525 l 142 525 l 142 440 l 412 440 l 412 144 l 504 144 m 773 0 l 773 84 l 142 84 l 142 0 l 773 0 "},"Ú":{"x_min":154.75,"x_max":881.890625,"ha":824,"o":"m 881 958 l 778 958 l 659 345 b 426 75 631 200 602 75 b 259 219 338 75 259 119 b 274 336 259 258 267 297 l 392 958 l 289 958 l 171 337 b 154 204 164 294 154 248 b 421 -15 154 48 285 -15 b 763 345 674 -15 719 126 l 881 958 m 773 1255 l 653 1255 l 559 1073 l 644 1073 l 773 1255 "},"|":{"x_min":197.359375,"x_max":289.921875,"ha":358,"o":"m 289 -255 l 289 1156 l 197 1156 l 197 -255 l 289 -255 "},"§":{"x_min":109.28125,"x_max":695.109375,"ha":643,"o":"m 695 940 b 493 973 629 961 563 973 b 244 780 379 973 244 916 b 280 673 244 740 259 706 b 147 470 212 619 147 568 b 468 177 147 295 468 312 b 305 59 468 94 374 59 b 131 125 239 59 181 86 l 109 13 b 283 -15 167 -6 222 -15 b 582 201 408 -15 582 48 b 533 311 582 244 565 281 b 667 508 602 359 667 413 b 352 791 667 680 352 670 b 499 898 352 869 435 898 b 674 838 560 898 624 873 l 695 940 m 565 462 b 487 340 565 412 523 366 b 249 516 421 379 249 422 b 324 640 249 568 287 609 b 420 594 355 623 388 611 b 565 462 474 572 565 533 "},"Ý":{"x_min":176,"x_max":872,"ha":694,"o":"m 872 958 l 751 958 l 440 551 l 289 958 l 176 958 l 372 441 l 287 0 l 391 0 l 475 441 l 872 958 m 690 1255 l 570 1255 l 476 1073 l 561 1073 l 690 1255 "},"b":{"x_min":138.828125,"x_max":665.578125,"ha":668,"o":"m 665 429 b 491 676 665 545 630 676 b 294 550 401 676 337 623 l 291 552 l 370 958 l 273 958 l 151 316 b 138 201 144 279 138 240 b 347 -15 138 68 216 -15 b 665 429 581 -15 665 227 m 559 412 b 355 63 559 291 507 63 b 232 223 266 63 232 145 b 454 597 232 341 311 597 b 559 412 555 597 559 487 "},"q":{"x_min":114.328125,"x_max":675.109375,"ha":668,"o":"m 675 661 l 578 661 l 560 558 l 558 558 b 400 676 539 630 470 676 b 114 215 194 676 114 383 b 288 -15 114 100 157 -15 b 470 109 381 -15 430 30 l 473 106 l 396 -297 l 492 -297 l 675 661 m 524 420 b 321 63 524 305 468 63 b 220 226 231 63 220 155 b 406 597 220 334 268 597 b 524 420 492 597 524 493 "},"Ö":{"x_min":148.71875,"x_max":844.203125,"ha":824,"o":"m 844 656 b 584 973 844 834 780 973 b 148 311 253 973 148 586 b 416 -15 148 122 208 -15 b 844 656 743 -15 844 388 m 729 647 b 426 75 729 461 665 75 b 263 308 298 75 263 201 b 562 883 263 491 325 883 b 729 647 702 883 729 763 m 774 1211 l 655 1211 l 632 1088 l 751 1088 l 774 1211 m 533 1211 l 414 1211 l 391 1088 l 510 1088 l 533 1211 "},"z":{"x_min":42,"x_max":619,"ha":565,"o":"m 619 661 l 191 661 l 176 583 l 491 583 l 56 77 l 42 0 l 506 0 l 521 77 l 172 77 l 604 583 l 619 661 "},"ã":{"x_min":113.859375,"x_max":674.546875,"ha":668,"o":"m 674 661 l 577 661 l 560 558 l 557 558 b 399 676 531 629 474 676 b 113 213 192 676 113 380 b 288 -15 113 97 157 -15 b 470 109 383 -15 429 30 l 473 106 l 452 0 l 549 0 l 674 661 m 523 420 b 322 63 523 305 467 63 b 220 227 232 63 220 155 b 405 597 220 334 267 597 b 523 420 494 597 523 495 m 577 922 b 535 855 573 898 568 855 b 391 929 501 855 444 929 b 284 776 320 929 298 831 l 341 776 b 381 843 345 797 354 843 b 523 768 407 843 471 768 b 635 922 595 768 628 862 l 577 922 "},"æ":{"x_min":108.59375,"x_max":994.6875,"ha":978,"o":"m 994 488 b 808 676 994 604 919 676 b 644 584 741 676 682 640 l 642 587 l 657 661 l 572 661 l 553 558 l 550 558 b 393 676 525 629 470 676 b 108 213 186 676 108 380 b 281 -15 108 98 152 -15 b 465 109 376 -15 420 30 l 467 106 l 446 0 l 530 0 l 548 100 l 550 100 b 756 -15 587 22 674 -15 b 895 4 804 -15 850 -6 l 910 81 b 789 63 870 70 831 63 b 591 272 651 63 591 134 b 601 350 591 298 595 323 l 971 350 b 994 488 983 393 994 445 m 898 488 b 892 427 898 468 896 448 l 617 427 b 802 597 650 519 696 597 b 898 488 864 597 898 547 m 518 420 b 315 63 518 304 462 63 b 214 227 227 63 214 158 b 399 597 214 334 261 597 b 518 420 489 597 518 495 "},"®":{"x_min":156.8125,"x_max":796.53125,"ha":694,"o":"m 796 647 b 476 973 796 826 652 973 b 156 647 301 973 156 826 b 476 320 156 466 299 320 b 796 647 652 320 796 466 m 748 647 b 476 369 748 495 625 369 b 204 647 328 369 204 495 b 476 925 204 798 328 925 b 748 647 625 925 748 798 m 610 483 l 547 631 b 605 716 585 652 605 668 b 468 827 605 809 544 827 l 355 827 l 355 483 l 416 483 l 416 622 l 488 622 l 540 483 l 610 483 m 542 722 b 488 677 542 690 516 677 l 416 677 l 416 768 l 484 768 b 542 722 516 768 542 756 "},"É":{"x_min":116,"x_max":754,"ha":643,"o":"m 754 958 l 299 958 l 116 0 l 582 0 l 598 90 l 237 90 l 306 455 l 641 455 l 657 545 l 324 545 l 385 868 l 736 868 l 754 958 m 692 1255 l 571 1255 l 478 1073 l 563 1073 l 692 1255 "},"~":{"x_min":161,"x_max":758.53125,"ha":797,"o":"m 697 429 b 585 341 670 379 629 341 b 468 384 546 341 510 358 b 332 427 426 411 385 427 b 161 313 250 427 200 376 l 222 245 b 333 333 248 294 288 333 b 449 290 376 333 412 313 b 588 247 491 263 539 247 b 758 359 664 247 717 295 l 697 429 "},"³":{"x_min":156.640625,"x_max":576.21875,"ha":479,"o":"m 576 1034 b 416 1168 576 1130 501 1168 b 234 1029 336 1168 242 1122 l 316 1029 b 412 1106 328 1080 362 1106 b 497 1026 464 1106 497 1081 b 351 900 497 934 438 900 l 341 837 b 450 744 411 834 450 822 b 328 605 450 661 415 605 b 245 648 296 605 257 616 b 239 665 242 652 239 661 b 241 673 239 668 241 670 l 241 683 l 158 683 b 156 670 158 679 156 673 l 156 662 b 321 543 156 572 249 543 b 529 750 452 543 529 620 b 460 868 529 808 513 847 b 497 884 474 872 485 877 b 576 1034 550 916 576 972 "},"¡":{"x_min":45,"x_max":351,"ha":386,"o":"m 351 769 l 216 769 l 190 631 l 325 631 l 351 769 m 280 509 l 189 509 l 45 -188 l 157 -188 l 280 509 "},"[":{"x_min":97,"x_max":582,"ha":411,"o":"m 582 1055 l 335 1055 l 97 -188 l 343 -188 l 359 -106 l 214 -106 l 419 973 l 565 973 l 582 1055 "},"L":{"x_min":118,"x_max":575,"ha":565,"o":"m 575 90 l 237 90 l 403 958 l 300 958 l 118 0 l 557 0 l 575 90 "}," ":{"x_min":0,"x_max":0,"ha":283},"%":{"x_min":137.46875,"x_max":1139.25,"ha":1132,"o":"m 1139 409 b 977 606 1139 519 1097 606 b 714 183 773 606 714 348 b 879 -15 714 66 754 -15 b 1139 409 1078 -15 1139 250 m 903 880 l 826 880 l 375 0 l 453 0 l 903 880 m 562 700 b 398 895 562 809 518 895 b 137 473 196 895 137 636 b 300 273 137 356 176 273 b 562 700 500 273 562 538 m 1060 402 b 888 50 1060 301 1020 50 b 793 191 809 50 793 127 b 973 541 793 297 834 541 b 1060 402 1052 541 1060 465 m 483 693 b 311 338 483 591 445 338 b 216 480 235 338 216 416 b 394 830 216 586 258 830 b 483 693 473 830 483 755 "},"P":{"x_min":115.6875,"x_max":766.3125,"ha":668,"o":"m 766 738 b 468 958 766 938 628 958 l 299 958 l 115 0 l 219 0 l 300 427 l 426 427 b 766 738 635 427 766 512 m 657 727 b 409 518 657 550 560 518 l 317 518 l 385 868 l 451 868 b 657 727 555 868 657 863 "},"À":{"x_min":12,"x_max":744,"ha":772,"o":"m 744 0 l 623 958 l 495 958 l 12 0 l 119 0 l 263 294 l 607 294 l 642 0 l 744 0 m 597 384 l 307 384 l 539 861 l 542 861 l 597 384 m 599 1073 l 576 1255 l 457 1255 l 514 1073 l 599 1073 "},"_":{"x_min":0,"x_max":680.5625,"ha":694,"o":"m 680 -159 l 680 -90 l 0 -90 l 0 -159 l 680 -159 "},"ñ":{"x_min":109.171875,"x_max":667.140625,"ha":694,"o":"m 667 527 b 536 676 667 605 620 676 b 307 526 419 676 369 615 l 305 529 l 331 661 l 234 661 l 109 0 l 205 0 l 248 225 b 488 584 269 340 344 584 b 563 505 536 584 563 554 b 551 394 563 466 558 431 l 476 0 l 573 0 l 654 426 b 667 527 661 459 667 494 m 590 922 b 548 855 586 898 581 855 b 404 929 514 855 457 929 b 297 776 333 929 311 831 l 354 776 b 394 843 358 797 367 843 b 536 768 420 843 484 768 b 648 922 608 768 641 862 l 590 922 "},"+":{"x_min":144.28125,"x_max":773.109375,"ha":797,"o":"m 504 0 l 504 295 l 773 295 l 773 380 l 504 380 l 504 652 l 412 652 l 412 380 l 144 380 l 144 295 l 412 295 l 412 0 l 504 0 "},"½":{"x_min":201.0625,"x_max":1061.28125,"ha":1132,"o":"m 825 880 l 748 880 l 297 0 l 375 0 l 825 880 m 418 895 l 349 895 l 216 818 l 201 736 l 329 813 l 228 281 l 301 281 l 418 895 m 1061 468 b 903 613 1061 565 994 613 b 710 462 814 613 719 566 l 791 462 b 896 552 802 519 839 552 b 980 469 949 552 980 523 b 631 66 980 334 733 143 l 620 0 l 978 0 l 989 68 l 729 68 b 793 118 748 83 771 101 b 1061 468 912 209 1061 327 "},"Æ":{"x_min":0,"x_max":1218,"ha":1106,"o":"m 1218 958 l 719 958 l 0 0 l 123 0 l 425 415 l 683 415 l 632 0 l 1046 0 l 1064 90 l 744 90 l 783 415 l 1105 415 l 1122 505 l 794 505 l 839 868 l 1201 868 l 1218 958 m 736 838 l 694 505 l 491 505 l 733 841 l 736 838 "},"Ë":{"x_min":116,"x_max":754,"ha":643,"o":"m 754 958 l 299 958 l 116 0 l 582 0 l 598 90 l 237 90 l 306 455 l 641 455 l 657 545 l 324 545 l 385 868 l 737 868 l 754 958 m 748 1211 l 627 1211 l 605 1088 l 724 1088 l 748 1211 m 506 1211 l 387 1211 l 364 1088 l 483 1088 l 506 1211 "},"'":{"x_min":225,"x_max":383,"ha":283,"o":"m 383 958 l 259 958 l 225 661 l 302 661 l 383 958 "},"ª":{"x_min":148.359375,"x_max":455.96875,"ha":386,"o":"m 455 766 l 404 766 l 394 708 l 392 708 b 304 775 377 748 348 775 b 148 522 190 775 148 615 b 243 394 148 459 171 394 b 344 462 287 394 323 423 l 347 459 l 334 401 l 386 401 l 455 766 m 372 634 b 262 440 372 573 341 440 b 205 527 215 440 205 488 b 308 729 205 587 232 729 b 372 634 353 729 372 672 "},"ð":{"x_min":124.1875,"x_max":689.046875,"ha":694,"o":"m 689 437 b 627 717 689 535 675 630 b 573 799 611 747 593 773 l 659 831 l 645 886 l 529 842 l 479 881 l 309 881 b 431 806 351 860 393 834 l 333 769 l 346 715 l 478 765 b 572 630 520 726 551 681 l 569 627 b 457 676 537 662 502 676 b 124 227 216 676 124 438 b 348 -15 124 78 199 -15 b 689 437 595 -15 689 220 m 582 416 b 359 63 582 271 536 63 b 230 238 260 63 230 152 b 445 596 230 373 276 596 b 582 416 558 596 582 513 "},"T":{"x_min":165,"x_max":737,"ha":565,"o":"m 737 958 l 181 958 l 165 868 l 389 868 l 224 0 l 328 0 l 494 868 l 719 868 l 737 958 "},"Þ":{"x_min":115.6875,"x_max":766.3125,"ha":668,"o":"m 766 555 b 484 776 766 748 643 776 l 367 776 l 401 958 l 298 958 l 115 0 l 219 0 l 262 225 l 427 225 b 766 555 649 225 766 325 m 657 545 b 409 315 657 362 574 315 l 279 315 l 349 686 l 468 686 b 657 545 582 686 657 686 "},"j":{"x_min":-112,"x_max":416,"ha":335,"o":"m 416 958 l 293 958 l 269 833 l 391 833 l 416 958 m 346 661 l 249 661 l 123 0 b -33 -193 101 -100 90 -193 b -95 -186 -53 -193 -75 -190 l -112 -268 b -57 -272 -94 -270 -76 -272 b 220 0 131 -272 187 -170 l 346 661 "},"1":{"x_min":298,"x_max":607,"ha":694,"o":"m 607 895 l 511 895 l 318 780 l 298 673 l 485 786 l 336 0 l 435 0 l 607 895 "},"ä":{"x_min":114.140625,"x_max":675.078125,"ha":668,"o":"m 675 661 l 578 661 l 560 558 l 557 558 b 400 676 532 629 474 676 b 114 213 193 676 114 380 b 288 -15 114 97 157 -15 b 470 109 383 -15 429 30 l 473 106 l 453 0 l 549 0 l 675 661 m 523 420 b 322 63 523 305 468 63 b 220 227 232 63 220 155 b 405 597 220 334 267 597 b 523 420 495 597 523 495 m 671 913 l 551 913 l 528 791 l 647 791 l 671 913 m 429 913 l 310 913 l 287 791 l 406 791 l 429 913 "},"<":{"x_min":144.4375,"x_max":773.28125,"ha":797,"o":"m 773 0 l 773 87 l 237 326 l 773 565 l 773 652 l 144 369 l 144 283 l 773 0 "},"£":{"x_min":123.859375,"x_max":737.9375,"ha":617,"o":"m 737 750 b 530 925 737 872 639 925 b 258 643 336 925 291 813 l 230 493 l 138 493 l 123 416 l 215 416 l 136 0 l 585 0 l 602 90 l 254 90 l 315 416 l 479 416 l 494 493 l 330 493 l 360 652 b 517 843 378 754 396 843 b 631 750 571 843 631 815 b 627 725 631 741 630 733 l 735 725 b 737 750 739 731 737 743 "},"¹":{"x_min":263,"x_max":481,"ha":479,"o":"m 481 1168 l 411 1168 l 277 1090 l 263 1008 l 391 1086 l 290 554 l 363 554 l 481 1168 "},"t":{"x_min":157.5,"x_max":546.78125,"ha":463,"o":"m 546 661 l 373 661 l 413 875 l 305 815 l 277 661 l 172 661 l 157 583 l 262 583 l 191 209 b 182 125 186 181 182 152 b 349 -15 182 13 255 -15 b 413 -8 371 -15 392 -12 l 429 72 b 367 63 409 66 387 63 b 280 141 314 63 280 86 b 300 272 280 184 290 229 l 358 583 l 531 583 l 546 661 "},"¬":{"x_min":144.28125,"x_max":773.109375,"ha":797,"o":"m 773 177 l 773 481 l 144 481 l 144 397 l 680 397 l 680 177 l 773 177 "},"ù":{"x_min":134.96875,"x_max":694.828125,"ha":694,"o":"m 694 661 l 598 661 l 553 436 b 313 76 527 322 460 76 b 238 154 268 76 238 108 b 249 266 238 191 242 229 l 325 661 l 228 661 l 147 234 b 134 133 140 201 134 166 b 265 -15 134 54 182 -15 b 491 134 381 -15 430 45 l 494 131 l 468 0 l 565 0 l 694 661 m 507 776 l 485 958 l 365 958 l 422 776 l 507 776 "},"W":{"x_min":217.578125,"x_max":1267,"ha":1157,"o":"m 1267 958 l 1164 958 l 870 129 l 868 129 l 800 958 l 700 958 l 318 129 l 315 131 l 336 958 l 232 958 l 217 0 l 340 0 l 722 819 l 725 819 l 794 0 l 918 0 l 1267 958 "},"ï":{"x_min":116,"x_max":515,"ha":335,"o":"m 339 661 l 242 661 l 116 0 l 212 0 l 339 661 m 515 913 l 395 913 l 372 791 l 491 791 l 515 913 m 273 913 l 154 913 l 131 791 l 250 791 l 273 913 "},">":{"x_min":144.140625,"x_max":772.96875,"ha":797,"o":"m 772 283 l 772 369 l 144 652 l 144 565 l 681 326 l 144 87 l 144 0 l 772 283 "},"v":{"x_min":137,"x_max":695,"ha":592,"o":"m 695 661 l 592 661 l 324 138 l 322 138 l 232 661 l 137 661 l 255 0 l 349 0 l 695 661 "},"û":{"x_min":135.21875,"x_max":694.359375,"ha":694,"o":"m 694 661 l 597 661 l 552 436 b 313 76 527 322 460 76 b 238 154 268 76 238 108 b 249 266 238 191 242 229 l 325 661 l 229 661 l 147 234 b 135 133 140 201 135 166 b 265 -15 135 54 182 -15 b 491 134 381 -15 430 45 l 494 131 l 468 0 l 565 0 l 694 661 m 644 776 l 558 958 l 457 958 l 304 776 l 386 776 l 495 887 l 561 776 l 644 776 "},"Ò":{"x_min":148.171875,"x_max":844.140625,"ha":824,"o":"m 844 656 b 584 973 844 834 780 973 b 148 311 253 973 148 586 b 416 -15 148 122 208 -15 b 844 656 743 -15 844 388 m 729 647 b 425 75 729 461 665 75 b 262 308 297 75 262 201 b 562 883 262 491 325 883 b 729 647 702 883 729 763 m 625 1073 l 603 1255 l 483 1255 l 540 1073 l 625 1073 "},"&":{"x_min":118.515625,"x_max":970.453125,"ha":900,"o":"m 970 527 l 813 527 l 871 827 l 763 768 l 717 527 l 507 527 b 325 663 411 527 325 547 b 525 847 325 787 411 847 b 654 818 574 847 611 836 l 671 902 b 524 926 622 918 573 926 b 216 661 360 926 216 843 b 328 491 216 576 257 529 b 118 206 187 452 118 352 b 373 -15 118 44 228 -15 b 499 4 415 -15 457 -6 l 515 87 b 393 63 476 75 435 63 b 227 223 285 63 227 112 b 439 450 227 356 304 450 l 702 450 l 654 197 b 643 93 647 163 643 126 b 794 -15 643 1 721 -15 b 869 -4 820 -15 843 -11 l 884 72 b 816 63 861 68 839 63 b 743 130 774 63 743 86 b 752 205 743 154 748 179 l 798 450 l 956 450 l 970 527 "},"Ð":{"x_min":89.828125,"x_max":819.390625,"ha":797,"o":"m 819 643 b 509 958 819 858 717 958 l 299 958 l 219 537 l 102 537 l 89 469 l 205 469 l 115 0 l 338 0 b 819 643 703 0 819 322 m 705 643 b 356 90 705 415 638 90 l 236 90 l 308 469 l 510 469 l 524 537 l 322 537 l 385 868 l 462 868 b 705 643 620 868 705 818 "},"I":{"x_min":125,"x_max":411,"ha":360,"o":"m 411 958 l 307 958 l 125 0 l 228 0 l 411 958 "},"G":{"x_min":148.1875,"x_max":860.046875,"ha":824,"o":"m 860 745 b 585 973 860 900 721 973 b 148 327 258 973 148 602 b 446 -15 148 123 232 -15 b 729 72 541 -15 653 12 l 819 540 l 498 540 l 480 450 l 698 450 l 634 123 b 465 75 585 86 523 75 b 262 341 297 75 262 195 b 574 883 262 526 340 883 b 738 740 658 883 738 834 b 732 697 738 725 737 712 l 853 697 b 860 745 857 712 860 729 "},"`":{"x_min":222,"x_max":364,"ha":403,"o":"m 364 776 l 342 958 l 222 958 l 279 776 l 364 776 "},"·":{"x_min":143,"x_max":302,"ha":283,"o":"m 302 508 l 168 508 l 143 372 l 276 372 l 302 508 "},"r":{"x_min":109,"x_max":549,"ha":438,"o":"m 549 676 b 307 530 438 676 356 631 l 305 533 l 331 661 l 234 661 l 109 0 l 205 0 l 252 244 b 529 575 279 404 340 575 l 549 676 "},"¿":{"x_min":17.6875,"x_max":539,"ha":565,"o":"m 539 769 l 404 769 l 378 631 l 513 631 l 539 769 m 469 509 l 372 509 b 258 298 352 397 347 377 l 174 220 b 17 -23 103 159 17 81 b 250 -204 17 -151 142 -204 b 430 -173 314 -204 370 -190 l 450 -69 b 270 -113 396 -95 332 -113 b 127 -4 204 -113 127 -81 b 242 162 127 63 197 120 l 337 251 b 458 447 409 318 441 344 l 469 509 "},"ý":{"x_min":108,"x_max":699,"ha":592,"o":"m 699 661 l 600 661 l 328 131 l 325 131 l 233 661 l 133 661 l 250 0 l 108 -272 l 207 -272 l 699 661 m 605 958 l 485 958 l 391 776 l 476 776 l 605 958 "},"x":{"x_min":12,"x_max":695,"ha":617,"o":"m 695 661 l 575 661 l 380 430 l 269 661 l 164 661 l 318 350 l 12 0 l 131 0 l 358 263 l 489 0 l 592 0 l 424 344 l 695 661 "},"è":{"x_min":122.828125,"x_max":630.6875,"ha":617,"o":"m 630 488 b 429 676 630 606 538 676 b 122 261 208 676 122 451 b 392 -15 122 76 212 -15 b 531 4 437 -15 486 -6 l 546 81 b 441 63 512 70 478 63 b 229 287 293 63 229 138 b 241 390 229 322 234 356 l 617 390 b 630 488 626 422 630 455 m 534 493 b 531 468 534 486 532 475 l 258 468 b 423 597 288 547 338 597 b 534 493 487 597 534 561 m 469 776 l 447 958 l 327 958 l 384 776 l 469 776 "},"º":{"x_min":149.71875,"x_max":451.890625,"ha":386,"o":"m 451 643 b 336 775 451 716 413 775 b 149 529 201 775 149 648 b 270 394 149 448 189 394 b 451 643 405 394 451 527 m 394 631 b 279 440 394 558 372 440 b 206 533 223 440 206 484 b 328 729 206 608 232 729 b 394 631 386 729 394 680 "},"Ø":{"x_min":77.140625,"x_max":899.25,"ha":824,"o":"m 899 980 l 846 1014 l 765 906 b 583 973 716 956 650 973 b 147 311 252 973 147 585 b 180 119 147 245 153 179 l 77 -20 l 130 -55 l 217 62 b 416 -15 267 2 341 -15 b 843 656 742 -15 843 388 b 803 852 843 723 835 792 l 899 980 m 267 236 b 262 308 262 259 262 284 b 561 882 262 491 324 882 b 695 812 617 882 667 862 l 267 236 m 729 646 b 425 75 729 460 665 75 b 290 161 364 75 318 104 l 720 739 b 729 646 727 710 729 676 "},"÷":{"x_min":142.921875,"x_max":773.109375,"ha":797,"o":"m 521 550 l 521 676 l 396 676 l 396 550 l 521 550 m 773 295 l 773 380 l 142 380 l 142 295 l 773 295 m 521 0 l 521 126 l 396 126 l 396 0 l 521 0 "},"h":{"x_min":108.890625,"x_max":666.953125,"ha":694,"o":"m 666 527 b 536 676 666 605 620 676 b 307 526 419 676 368 615 l 304 529 l 387 958 l 291 958 l 108 0 l 205 0 l 247 225 b 488 584 269 340 344 584 b 563 505 536 584 563 554 b 552 394 563 468 559 431 l 477 0 l 574 0 l 654 426 b 666 527 661 459 666 494 "},".":{"x_min":71,"x_max":233,"ha":283,"o":"m 233 137 l 98 137 l 71 0 l 205 0 l 233 137 "},";":{"x_min":69,"x_max":373,"ha":283,"o":"m 373 661 l 238 661 l 210 523 l 345 523 l 373 661 m 266 137 l 146 137 l 69 -170 l 158 -170 l 266 137 "},"f":{"x_min":146,"x_max":652,"ha":438,"o":"m 652 961 b 547 973 618 969 583 973 b 271 661 330 973 309 841 l 163 661 l 148 583 l 256 583 l 146 0 l 242 0 l 352 583 l 536 583 l 551 661 l 367 661 b 535 894 389 770 394 894 b 637 877 571 894 604 887 l 652 961 "},"A":{"x_min":12,"x_max":744,"ha":772,"o":"m 744 0 l 622 958 l 495 958 l 12 0 l 119 0 l 263 294 l 606 294 l 641 0 l 744 0 m 597 384 l 307 384 l 539 861 l 542 861 l 597 384 "},"6":{"x_min":151.03125,"x_max":751.28125,"ha":694,"o":"m 751 726 b 537 895 751 844 638 895 b 151 281 234 895 151 526 b 394 -15 151 111 205 -15 b 692 305 572 -15 692 127 b 494 531 692 438 634 531 b 278 427 402 531 333 500 l 276 430 b 525 813 298 572 344 813 b 638 720 581 813 638 783 b 636 698 638 713 638 705 l 748 698 b 751 726 749 708 751 716 m 585 288 b 404 66 585 180 522 66 b 258 226 304 66 258 127 b 447 450 258 343 323 450 b 585 288 543 450 585 377 "},"O":{"x_min":148.359375,"x_max":843.890625,"ha":824,"o":"m 843 656 b 583 973 843 834 779 973 b 148 311 253 973 148 586 b 416 -15 148 122 208 -15 b 843 656 743 -15 843 388 m 729 647 b 426 75 729 461 665 75 b 262 308 298 75 262 201 b 562 883 262 491 325 883 b 729 647 702 883 729 763 "},"n":{"x_min":108.890625,"x_max":666.953125,"ha":694,"o":"m 666 527 b 536 676 666 605 620 676 b 307 526 419 676 368 615 l 304 529 l 330 661 l 234 661 l 108 0 l 205 0 l 247 225 b 488 584 269 340 344 584 b 563 505 536 584 563 554 b 551 394 563 466 558 431 l 476 0 l 573 0 l 654 426 b 666 527 661 459 666 494 "},"3":{"x_min":93.03125,"x_max":697.359375,"ha":694,"o":"m 697 702 b 467 895 697 841 589 895 b 206 700 353 895 216 829 l 318 700 b 461 813 336 773 387 813 b 589 691 539 813 589 773 b 377 500 589 552 502 500 l 362 418 b 521 276 463 413 521 394 b 339 66 521 152 468 66 b 212 134 290 66 230 83 b 206 161 208 140 206 154 b 207 183 206 168 207 176 l 95 183 b 93 155 94 172 93 165 b 329 -15 93 26 225 -15 b 629 284 516 -15 629 95 b 513 459 629 373 596 433 l 513 462 b 584 486 539 463 562 473 b 697 702 659 530 697 615 "},"9":{"x_min":108.890625,"x_max":710.5,"ha":694,"o":"m 710 600 b 466 895 710 770 651 895 b 168 575 288 895 168 751 b 367 350 168 440 227 350 b 581 454 455 350 526 381 l 583 451 b 336 66 562 311 518 66 b 221 159 283 66 221 98 b 223 181 221 166 223 175 l 111 181 b 108 154 110 170 108 163 b 323 -15 108 36 221 -15 b 710 600 624 -15 710 354 m 602 654 b 413 431 602 538 537 431 b 276 591 319 431 276 500 b 457 813 276 698 338 813 b 602 654 556 813 602 752 "},"l":{"x_min":116,"x_max":395,"ha":335,"o":"m 395 958 l 298 958 l 116 0 l 212 0 l 395 958 "},"¤":{"x_min":88.8125,"x_max":698.1875,"ha":821,"o":"m 698 241 l 605 330 b 658 491 639 378 658 431 b 605 652 658 545 643 602 l 698 742 l 643 799 l 551 708 b 393 760 509 744 442 760 b 234 708 345 760 288 748 l 143 799 b 88 742 122 781 106 760 l 181 652 b 128 491 147 608 128 551 b 181 330 128 431 148 376 l 88 241 b 143 184 106 223 122 202 l 234 276 b 393 221 286 234 347 221 b 552 276 451 221 509 241 l 643 184 l 698 241 m 581 492 b 393 301 581 387 496 301 b 205 492 290 301 205 387 b 394 683 205 594 286 683 b 581 492 487 683 581 605 "},"4":{"x_min":102,"x_max":724,"ha":694,"o":"m 724 336 l 574 336 l 677 880 l 568 880 l 118 331 l 102 245 l 457 245 l 410 0 l 510 0 l 556 245 l 707 245 l 724 336 m 555 756 l 474 336 l 219 336 l 552 759 l 555 756 "},"p":{"x_min":57.171875,"x_max":675.109375,"ha":668,"o":"m 675 447 b 500 676 675 561 631 676 b 318 551 406 676 359 630 l 315 554 l 336 661 l 239 661 l 57 -297 l 153 -297 l 228 102 l 231 102 b 389 -15 257 31 314 -15 b 675 447 597 -15 675 277 m 568 433 b 382 63 568 325 521 63 b 265 240 291 63 265 166 b 466 597 265 355 319 597 b 568 433 556 597 568 505 "},"à":{"x_min":114.8125,"x_max":676.03125,"ha":668,"o":"m 676 661 l 579 661 l 561 558 l 558 558 b 400 676 533 629 475 676 b 114 213 193 676 114 380 b 289 -15 114 97 158 -15 b 471 109 384 -15 430 30 l 474 106 l 454 0 l 550 0 l 676 661 m 524 420 b 323 63 524 305 469 63 b 220 227 233 63 220 155 b 406 597 220 334 268 597 b 524 420 496 597 524 495 m 495 776 l 473 958 l 353 958 l 410 776 l 495 776 "},"Ü":{"x_min":154.921875,"x_max":881.921875,"ha":824,"o":"m 881 958 l 778 958 l 660 345 b 427 75 631 200 602 75 b 259 219 338 75 259 119 b 274 336 259 258 267 297 l 393 958 l 289 958 l 171 337 b 154 204 164 294 154 248 b 421 -15 154 48 285 -15 b 763 345 674 -15 719 126 l 881 958 m 788 1211 l 668 1211 l 645 1088 l 764 1088 l 788 1211 m 546 1211 l 427 1211 l 404 1088 l 523 1088 l 546 1211 "},"ó":{"x_min":117.3125,"x_max":668.03125,"ha":668,"o":"m 668 437 b 450 676 668 580 598 676 b 117 227 208 676 117 440 b 340 -15 117 81 190 -15 b 668 437 583 -15 668 227 m 561 416 b 351 63 561 280 521 63 b 223 238 253 63 223 154 b 438 597 223 373 271 597 b 561 416 543 597 561 502 m 643 958 l 523 958 l 429 776 l 515 776 l 643 958 "}}}
